HIERARCHY
ROOT Hips
{
  OFFSET 5.80788e-005 67.184 3.4734
  CHANNELS 6 Xposition Yposition Zposition Zrotation Xrotation Yrotation
  JOINT Chest
  {
    OFFSET 0 8.7983 -4.7612
    CHANNELS 3 Zrotation Xrotation Yrotation
    JOINT Chest2
    {
      OFFSET 0 8.0291 0.4195
      CHANNELS 3 Zrotation Xrotation Yrotation
      JOINT Chest3
      {
        OFFSET 0 9.9351 -2.2114
        CHANNELS 3 Zrotation Xrotation Yrotation
        JOINT Neck
        {
          OFFSET 0 22.3885 -0.4656
          CHANNELS 3 Zrotation Xrotation Yrotation
          JOINT Head
          {
            OFFSET -0.0001 12.643 3.4389
            CHANNELS 3 Zrotation Xrotation Yrotation
            End Site
            {
              OFFSET 0.0001 17.6655 0.5274
            }
          }
        }
        JOINT LeftCollar
        {
          OFFSET 2.2603 21.606 7.4023
          CHANNELS 3 Zrotation Xrotation Yrotation
          JOINT LeftShoulder
          {
            OFFSET 13.5163 -1.1332 -5.0146
            CHANNELS 3 Zrotation Xrotation Yrotation
            JOINT LeftElbow
            {
              OFFSET -0.0995 -28.05 -0.2431
              CHANNELS 3 Zrotation Xrotation Yrotation
              JOINT LeftWrist
              {
                OFFSET 0.0679 -23.3996 -0.1402
                CHANNELS 3 Zrotation Xrotation Yrotation
                JOINT LeftFinger1
                {
                  OFFSET 0.7932 -9.069 2.5189
                  CHANNELS 3 Zrotation Xrotation Yrotation
                  JOINT LeftFinger11
                  {
                    OFFSET -0.8272 -3.3923 0.5977
                    CHANNELS 3 Zrotation Xrotation Yrotation
                    JOINT LeftFinger12
                    {
                      OFFSET -0.5649 -2.3158 0.4082
                      CHANNELS 3 Zrotation Xrotation Yrotation
                      End Site
                      {
                        OFFSET -0.4919 -1.6479 0.2673
                      }
                    }
                  }
                }
                JOINT LeftFinger2
                {
                  OFFSET 0.9159 -9.2044 0.2193
                  CHANNELS 3 Zrotation Xrotation Yrotation
                  JOINT LeftFinger21
                  {
                    OFFSET 0.0117 -4.1944 -0.0248
                    CHANNELS 3 Zrotation Xrotation Yrotation
                    JOINT LeftFinger22
                    {
                      OFFSET 0.0071 -2.3249 -0.0142
                      CHANNELS 3 Zrotation Xrotation Yrotation
                      End Site
                      {
                        OFFSET -0.1475 -2.0882 0.0028
                      }
                    }
                  }
                }
                JOINT LeftFinger3
                {
                  OFFSET 0.6113 -8.7231 -2.0637
                  CHANNELS 3 Zrotation Xrotation Yrotation
                  JOINT LeftFinger31
                  {
                    OFFSET -0.1927 -3.8059 -0.2383
                    CHANNELS 3 Zrotation Xrotation Yrotation
                    JOINT LeftFinger32
                    {
                      OFFSET -0.1091 -2.1688 -0.1362
                      CHANNELS 3 Zrotation Xrotation Yrotation
                      End Site
                      {
                        OFFSET -0.2358 -1.9176 -0.0906
                      }
                    }
                  }
                }
                JOINT LeftFinger4
                {
                  OFFSET -0.6151 -8.0947 -3.5641
                  CHANNELS 3 Zrotation Xrotation Yrotation
                  JOINT LeftFinger41
                  {
                    OFFSET -0.4882 -2.341 -0.6462
                    CHANNELS 3 Zrotation Xrotation Yrotation
                    JOINT LeftFinger42
                    {
                      OFFSET -0.3575 -1.7167 -0.4742
                      CHANNELS 3 Zrotation Xrotation Yrotation
                      End Site
                      {
                        OFFSET -0.4187 -1.5237 -0.3496
                      }
                    }
                  }
                }
                JOINT LeftFinger0
                {
                  OFFSET -1.42 -1.8761 1.4223
                  CHANNELS 3 Zrotation Xrotation Yrotation
                  JOINT LeftFinger01
                  {
                    OFFSET -1.1471 -3.4929 2.6334
                    CHANNELS 3 Zrotation Xrotation Yrotation
                    JOINT LeftFinger02
                    {
                      OFFSET -0.823 -2.3 1.6571
                      CHANNELS 3 Zrotation Xrotation Yrotation
                      End Site
                      {
                        OFFSET -0.5822 -1.6914 1.1582
                      }
                    }
                  }
                }
              }
            }
          }
        }
        JOINT RightCollar
        {
          OFFSET -2.2603 21.606 7.4023
          CHANNELS 3 Zrotation Xrotation Yrotation
          JOINT RightShoulder
          {
            OFFSET -13.5187 -1.1334 -5.0155
            CHANNELS 3 Zrotation Xrotation Yrotation
            JOINT RightElbow
            {
              OFFSET 0.0994 -28.0499 -0.2431
              CHANNELS 3 Zrotation Xrotation Yrotation
              JOINT RightWrist
              {
                OFFSET -0.0679 -23.3996 -0.1402
                CHANNELS 3 Zrotation Xrotation Yrotation
                JOINT RightFinger1
                {
                  OFFSET -0.7932 -9.0691 2.5189
                  CHANNELS 3 Zrotation Xrotation Yrotation
                  JOINT RightFinger11
                  {
                    OFFSET 0.8272 -3.3923 0.5977
                    CHANNELS 3 Zrotation Xrotation Yrotation
                    JOINT RightFinger12
                    {
                      OFFSET 0.565 -2.3158 0.4082
                      CHANNELS 3 Zrotation Xrotation Yrotation
                      End Site
                      {
                        OFFSET 0.4919 -1.6479 0.2673
                      }
                    }
                  }
                }
                JOINT RightFinger2
                {
                  OFFSET -0.916 -9.2044 0.2193
                  CHANNELS 3 Zrotation Xrotation Yrotation
                  JOINT RightFinger21
                  {
                    OFFSET -0.0117 -4.1944 -0.0248
                    CHANNELS 3 Zrotation Xrotation Yrotation
                    JOINT RightFinger22
                    {
                      OFFSET -0.0071 -2.3249 -0.0142
                      CHANNELS 3 Zrotation Xrotation Yrotation
                      End Site
                      {
                        OFFSET 0.1475 -2.0882 0.0028
                      }
                    }
                  }
                }
                JOINT RightFinger3
                {
                  OFFSET -0.6113 -8.7231 -2.0637
                  CHANNELS 3 Zrotation Xrotation Yrotation
                  JOINT RightFinger31
                  {
                    OFFSET 0.1927 -3.8059 -0.2383
                    CHANNELS 3 Zrotation Xrotation Yrotation
                    JOINT RightFinger32
                    {
                      OFFSET 0.1091 -2.1688 -0.1362
                      CHANNELS 3 Zrotation Xrotation Yrotation
                      End Site
                      {
                        OFFSET 0.2358 -1.9176 -0.0906
                      }
                    }
                  }
                }
                JOINT RightFinger4
                {
                  OFFSET 0.6151 -8.0947 -3.564
                  CHANNELS 3 Zrotation Xrotation Yrotation
                  JOINT RightFinger41
                  {
                    OFFSET 0.4882 -2.341 -0.6462
                    CHANNELS 3 Zrotation Xrotation Yrotation
                    JOINT RightFinger42
                    {
                      OFFSET 0.3574 -1.7166 -0.4742
                      CHANNELS 3 Zrotation Xrotation Yrotation
                      End Site
                      {
                        OFFSET 0.4187 -1.5237 -0.3496
                      }
                    }
                  }
                }
                JOINT RightFinger0
                {
                  OFFSET 1.4199 -1.8761 1.4221
                  CHANNELS 3 Zrotation Xrotation Yrotation
                  JOINT RightFinger01
                  {
                    OFFSET 1.1472 -3.4929 2.6336
                    CHANNELS 3 Zrotation Xrotation Yrotation
                    JOINT RightFinger02
                    {
                      OFFSET 0.8229 -2.3 1.6571
                      CHANNELS 3 Zrotation Xrotation Yrotation
                      End Site
                      {
                        OFFSET 0.5822 -1.6914 1.1582
                      }
                    }
                  }
                }
              }
            }
          }
        }
      }
    }
  }
  JOINT RightHip
  {
    OFFSET -9.412 3.9771 -0.7758
    CHANNELS 3 Zrotation Xrotation Yrotation
    JOINT RightKnee
    {
      OFFSET -0.7531 -40.938 0
      CHANNELS 3 Zrotation Xrotation Yrotation
      JOINT RightAnkle
      {
        OFFSET 0 -40.1986 0
        CHANNELS 3 Zrotation Xrotation Yrotation
        JOINT RightToe
        {
          OFFSET 0 -4.4182 9.239
          CHANNELS 3 Zrotation Xrotation Yrotation
          End Site
          {
            OFFSET 0 0 6.1981
          }
        }
      }
    }
  }
  JOINT LeftHip
  {
    OFFSET 9.4119 3.9773 -0.7758
    CHANNELS 3 Zrotation Xrotation Yrotation
    JOINT LeftKnee
    {
      OFFSET 0.7532 -40.9383 0
      CHANNELS 3 Zrotation Xrotation Yrotation
      JOINT LeftAnkle
      {
        OFFSET 0 -40.1986 0
        CHANNELS 3 Zrotation Xrotation Yrotation
        JOINT LeftToe
        {
          OFFSET 0 -4.4182 9.239
          CHANNELS 3 Zrotation Xrotation Yrotation
          End Site
          {
            OFFSET 0 0 6.1981
          }
        }
      }
    }
  }
}
MOTION
Frames:	4
Frame Time:	0.0333333
5.80788e-005 67.184 3.4734 0 0 -0 0 0 -0 0 0 -0 0 0 -0 0 0 -0.00430691 0 0 -0 0 0 -12.5057 88.1196 14.2451 10.6914 -0.00159397 -0.00239328 0.00073872 -8.42824e-005 7.03715e-005 -7.12335e-007 -0 -3.97569e-016 -0 -5.96354e-016 0 -0 -6.95746e-016 0 1.59028e-015 -0 -3.97569e-016 -0 -0.0128176 0.00232603 8.68285e-005 -3.97569e-016 -5.96354e-016 -0 -0 -3.97569e-016 -0 -0.0160549 0.00299631 0.000857507 -1.27719e-014 2.38542e-015 1.59028e-015 -0 -3.97569e-016 -0 -0.0125652 0.00311565 0.00282177 -1.29707e-014 1.98785e-015 -3.18055e-015 -0 -3.97569e-016 -0 -5.96354e-016 0 -0 -6.95746e-016 0 1.59028e-015 -0.865631 0.165885 7.03429 -88.0329 10.2057 -10.5567 0.00156613 -0.00248724 -0.000789564 6.50541e-005 3.88177e-005 1.30299e-005 -1.98785e-016 0 -0 -2.98177e-016 0 1.59028e-015 -1.98785e-016 0 1.59028e-015 -1.98785e-016 0 -0 0.0129678 0.00231897 -8.49789e-005 -6.95746e-016 -3.97569e-016 -3.18055e-015 -1.98785e-016 0 -0 0.0163386 0.00303521 -0.000874321 -0 0 1.59028e-015 -1.98785e-016 0 -0 0.0145904 0.00368177 -0.00326532 9.93923e-017 3.97569e-016 3.18055e-015 -1.98785e-016 0 -0 -2.98177e-016 0 1.59028e-015 -1.98785e-016 0 1.59028e-015 3.42485 1.36937 -0.0640303 0.000136572 0.69354 0.00145564 -3.42573 -2.06297 -0.0607933 -3.19502e-024 0 -1.48106e-024 -3.42498 1.36123 0.0639712 -6.769e-005 0.712612 -0.0012277 3.42582 -2.07388 0.0612819 2.55305e-023 0 -2.31416e-026 
42.3545 -9.74131 52.2686 9.28512e-007 83.7908 -8.34064e-007 -0.337741 0.82812 -0.219198 -0.672413 1.65752 -0.433575 -0.672416 1.65753 -0.433578 0.0835839 1.76441 -46.7529 -0.662397 -16.1529 -28.0405 -8.12994 0.956714 -18.4851 59.107 3.39252 65.5902 48.1509 -53.0683 26.0878 17.6338 -33.7785 27.8752 1.98785e-016 0 2.78299e-015 -1.39149e-015 3.18055e-015 -4.96962e-016 5.96354e-016 0 3.37934e-015 1.98785e-016 0 2.78299e-015 -0.0128328 0.00232289 7.99651e-005 1.78906e-015 3.18055e-015 1.98785e-016 1.98785e-016 0 2.78299e-015 -0.0160713 0.00299836 0.000852632 1.19271e-015 3.18055e-015 -2.48481e-015 1.98785e-016 0 2.78299e-015 -0.0125697 0.00311726 0.00281494 -9.93923e-016 3.18055e-015 3.08116e-015 1.98785e-016 0 2.78299e-015 -1.39149e-015 3.18055e-015 -4.96962e-016 5.96354e-016 0 3.37934e-015 51.9782 -11.1852 -2.91031 -53.0755 -9.86863 -58.0222 -44.6179 -43.7556 -27.7319 3.26851 -34.4034 -4.92452 -3.72721e-017 1.59028e-015 -9.93923e-017 1.42876e-016 1.59028e-015 -0 -6.83322e-017 1.59028e-015 -4.96962e-017 -3.72721e-017 1.59028e-015 -9.93923e-017 0.0129487 0.00231856 -8.68247e-005 -6.83322e-017 -7.95139e-016 -0 -3.72721e-017 1.59028e-015 -9.93923e-017 0.0163213 0.00303383 -0.000873006 2.67117e-016 1.59028e-015 -0 -3.72721e-017 1.59028e-015 -9.93923e-017 0.0145891 0.00368211 -0.00326369 1.05117e-007 4.22321e-007 1.27631e-006 -3.72721e-017 1.59028e-015 -9.93923e-017 1.42876e-016 1.59028e-015 -0 -6.83322e-017 1.59028e-015 -4.96962e-017 -5.2313 4.76208 -46.6178 7.9814 21.8943 -23.2636 -3.35858 43.861 -3.47557 -1.46701e-005 3.60202e-007 4.80964e-006 2.34948 10.3378 49.3115 -5.176 7.17624 21.8936 6.39894 41.091 -5.57152 -7.95139e-016 3.18055e-015 -2.78299e-015 
39.8625 -5.68279 49.1747 5.53254e-008 78.3326 -3.23128e-008 -0.341761 1.19926 -0.208692 -0.679377 2.39976 -0.410359 -0.679374 2.39974 -0.410357 -0.0029109 0.773734 -44.0016 -0.606749 -15.7168 -27.2869 -6.90543 2.45609 -18.2955 61.2021 3.71343 62.366 45.0746 -50.0709 24.4865 19.5589 -30.3667 28.4841 7.95139e-016 3.18055e-015 -1.19271e-015 -7.95139e-016 0 3.97569e-016 -7.95139e-016 0 3.97569e-016 7.95139e-016 3.18055e-015 -1.19271e-015 -0.0128065 0.00232312 8.57685e-005 -3.07745e-006 -3.81563e-006 1.51749e-006 7.95139e-016 3.18055e-015 -1.19271e-015 -0.0160586 0.00299282 0.000854952 7.95139e-016 -1.27222e-014 1.98785e-015 7.95139e-016 3.18055e-015 -1.19271e-015 -0.0125913 0.00313551 0.00282445 7.95139e-016 -3.18055e-015 1.19271e-015 7.95139e-016 3.18055e-015 -1.19271e-015 -7.95139e-016 0 3.97569e-016 -7.95139e-016 0 3.97569e-016 48.6709 -11.118 0.13339 -55.1918 -7.05906 -54.7742 -40.7708 -41.0109 -25.2091 0.677955 -32.3649 -6.80898 -8.45943e-008 4.20499e-007 -8.48355e-007 -6.34457e-008 4.15929e-007 -6.36266e-007 -3.51884e-007 -9.40509e-008 -1.2819e-006 -8.45943e-008 4.20499e-007 -8.48355e-007 0.0129474 0.00231358 -8.622e-005 4.22852e-008 4.34523e-007 4.24179e-007 -8.45943e-008 4.20499e-007 -8.48355e-007 0.0163335 0.00303474 -0.000874968 2.11406e-008 8.5296e-007 2.1209e-007 -8.45943e-008 4.20499e-007 -8.48355e-007 0.0145836 0.0036788 -0.00326273 6.34136e-008 8.54497e-007 6.36268e-007 -8.45943e-008 4.20499e-007 -8.48355e-007 -6.34457e-008 4.15929e-007 -6.36266e-007 -3.51884e-007 -9.40509e-008 -1.2819e-006 -5.25167 5.83792 -45.6057 7.19907 20.9605 -21.8924 -5.74453 40.8576 -0.549447 6.71551e-006 8.44733e-007 -4.68419e-006 2.60979 11.1539 46.6382 -5.17355 6.84051 20.6464 6.36285 38.4192 -5.47324 1.18861e-007 -2.13493e-006 2.27974e-006 
39.8619 -5.73735 49.2176 -1.63958e-007 77.8326 1.56346e-007 -0.369907 1.60195 -0.204334 -0.734523 3.20519 -0.398545 -0.734523 3.20521 -0.398545 -0.00275814 -0.142633 -44.0017 -1.02481 -15.9901 -28.2444 -6.18889 3.92566 -18.4686 61.673 3.32945 62.3326 45.0489 -50.0512 24.4668 22.2553 -28.9175 30.4253 7.95139e-016 0 3.97569e-016 -1.54487e-031 -3.18055e-015 -2.78299e-015 0 0 -1.19271e-015 7.95139e-016 0 3.97569e-016 -0.0128177 0.00231663 8.68266e-005 1.59028e-015 6.36111e-015 -2.78299e-015 7.95139e-016 0 3.97569e-016 -0.0160554 0.00300145 0.000862054 7.95139e-016 3.18055e-015 3.57812e-015 7.95139e-016 0 3.97569e-016 -0.0125964 0.00313026 0.00283347 7.95139e-016 -6.36111e-015 1.98785e-015 7.95139e-016 0 3.97569e-016 -1.54487e-031 -3.18055e-015 -2.78299e-015 0 0 -1.19271e-015 48.4006 -11.6811 2.44114 -55.35 -5.58365 -54.2937 -39.8484 -40.7429 -24.474 -1.47647 -32.2772 -8.69368 1.09332e-015 7.95139e-016 7.95139e-016 1.49089e-016 0 3.97569e-016 2.98177e-016 7.95139e-016 3.97569e-016 1.09332e-015 7.95139e-016 7.95139e-016 0.0129502 0.00231742 -8.62663e-005 4.47266e-016 0 -0 1.09332e-015 7.95139e-016 7.95139e-016 0.0163315 0.00303665 -0.000874018 3.47873e-016 0 1.59028e-015 1.09332e-015 7.95139e-016 7.95139e-016 0.0145757 0.00367895 -0.00326214 7.95139e-016 1.59028e-015 -0 1.09332e-015 7.95139e-016 7.95139e-016 1.49089e-016 0 3.97569e-016 2.98177e-016 7.95139e-016 3.97569e-016 -5.49128 6.74811 -47.2573 7.19827 20.9435 -21.9539 -7.75095 40.7044 1.84964 1.59028e-015 3.0086e-006 2.38542e-015 2.70411 11.7937 46.8809 -5.42616 6.80942 20.6723 6.74268 38.4007 -5.86079 4.87022e-015 -6.36111e-015 4.22417e-015 
